<mxfile host="Electron" modified="2023-04-05T00:41:02.667Z" agent="Mozilla/5.0 (Windows NT 10.0; Win64; x64) AppleWebKit/537.36 (KHTML, like Gecko) draw.io/21.1.2 Chrome/106.0.5249.199 Electron/21.4.3 Safari/537.36" etag="h7oKQfwZq6pcLdVAfoID" version="21.1.2" type="device">
  <diagram name="Page-1" id="7CwHxx1alk3cKGe2ioqd">
    <mxGraphModel dx="977" dy="564" grid="1" gridSize="10" guides="1" tooltips="1" connect="1" arrows="1" fold="1" page="1" pageScale="1" pageWidth="850" pageHeight="1100" math="0" shadow="0">
      <root>
        <mxCell id="0" />
        <mxCell id="1" parent="0" />
        <mxCell id="pX23azcT-TvkSyR6TMsu-1" value="&lt;b&gt;WBS 1 Summary Element 1&lt;/b&gt;" style="text;html=1;align=center;verticalAlign=middle;resizable=0;points=[];autosize=1;strokeColor=none;fillColor=none;" vertex="1" parent="1">
          <mxGeometry y="40" width="180" height="30" as="geometry" />
        </mxCell>
        <mxCell id="pX23azcT-TvkSyR6TMsu-2" value="WBS 1.1" style="text;html=1;align=center;verticalAlign=middle;resizable=0;points=[];autosize=1;strokeColor=none;fillColor=none;" vertex="1" parent="1">
          <mxGeometry y="70" width="70" height="30" as="geometry" />
        </mxCell>
        <mxCell id="pX23azcT-TvkSyR6TMsu-3" value="WBS 1.2" style="text;html=1;align=center;verticalAlign=middle;resizable=0;points=[];autosize=1;strokeColor=none;fillColor=none;" vertex="1" parent="1">
          <mxGeometry y="100" width="70" height="30" as="geometry" />
        </mxCell>
        <mxCell id="pX23azcT-TvkSyR6TMsu-4" value="WBS 1.3" style="text;html=1;align=center;verticalAlign=middle;resizable=0;points=[];autosize=1;strokeColor=none;fillColor=none;" vertex="1" parent="1">
          <mxGeometry y="130" width="70" height="30" as="geometry" />
        </mxCell>
        <mxCell id="pX23azcT-TvkSyR6TMsu-5" value="WBS 1.4" style="text;html=1;align=center;verticalAlign=middle;resizable=0;points=[];autosize=1;strokeColor=none;fillColor=none;" vertex="1" parent="1">
          <mxGeometry y="160" width="70" height="30" as="geometry" />
        </mxCell>
        <mxCell id="pX23azcT-TvkSyR6TMsu-6" value="&lt;b&gt;WBS 2 Summary Element 2&lt;/b&gt;" style="text;html=1;align=center;verticalAlign=middle;resizable=0;points=[];autosize=1;strokeColor=none;fillColor=none;" vertex="1" parent="1">
          <mxGeometry y="190" width="180" height="30" as="geometry" />
        </mxCell>
        <mxCell id="pX23azcT-TvkSyR6TMsu-7" value="WBS 2.1" style="text;html=1;align=center;verticalAlign=middle;resizable=0;points=[];autosize=1;strokeColor=none;fillColor=none;" vertex="1" parent="1">
          <mxGeometry y="220" width="70" height="30" as="geometry" />
        </mxCell>
        <mxCell id="pX23azcT-TvkSyR6TMsu-8" value="WBS 2.2" style="text;html=1;align=center;verticalAlign=middle;resizable=0;points=[];autosize=1;strokeColor=none;fillColor=none;" vertex="1" parent="1">
          <mxGeometry y="250" width="70" height="30" as="geometry" />
        </mxCell>
        <mxCell id="pX23azcT-TvkSyR6TMsu-9" value="WBS 2.3" style="text;html=1;align=center;verticalAlign=middle;resizable=0;points=[];autosize=1;strokeColor=none;fillColor=none;" vertex="1" parent="1">
          <mxGeometry y="280" width="70" height="30" as="geometry" />
        </mxCell>
        <mxCell id="pX23azcT-TvkSyR6TMsu-10" value="WBS 2.4" style="text;html=1;align=center;verticalAlign=middle;resizable=0;points=[];autosize=1;strokeColor=none;fillColor=none;" vertex="1" parent="1">
          <mxGeometry y="310" width="70" height="30" as="geometry" />
        </mxCell>
        <mxCell id="pX23azcT-TvkSyR6TMsu-11" value="WEEKS:" style="text;html=1;align=center;verticalAlign=middle;resizable=0;points=[];autosize=1;strokeColor=none;fillColor=none;" vertex="1" parent="1">
          <mxGeometry x="100" y="10" width="70" height="30" as="geometry" />
        </mxCell>
        <mxCell id="pX23azcT-TvkSyR6TMsu-13" value="1&amp;nbsp; &amp;nbsp;2&amp;nbsp; 3&amp;nbsp; 4&amp;nbsp; 5&amp;nbsp; 6&amp;nbsp; 7&amp;nbsp; 8&amp;nbsp; 9&amp;nbsp; 10&amp;nbsp; 11 12&amp;nbsp; 13&amp;nbsp; 14&amp;nbsp; 15&amp;nbsp; 16" style="text;html=1;strokeColor=none;fillColor=none;align=center;verticalAlign=middle;whiteSpace=wrap;rounded=0;" vertex="1" parent="1">
          <mxGeometry x="184" y="10" width="320" height="30" as="geometry" />
        </mxCell>
        <mxCell id="pX23azcT-TvkSyR6TMsu-14" value="" style="endArrow=none;html=1;rounded=0;strokeColor=#8A8A8A;" edge="1" parent="1">
          <mxGeometry width="50" height="50" relative="1" as="geometry">
            <mxPoint x="220" y="365" as="sourcePoint" />
            <mxPoint x="220" y="45" as="targetPoint" />
          </mxGeometry>
        </mxCell>
        <mxCell id="pX23azcT-TvkSyR6TMsu-15" value="" style="endArrow=none;html=1;rounded=0;strokeColor=#8A8A8A;" edge="1" parent="1">
          <mxGeometry width="50" height="50" relative="1" as="geometry">
            <mxPoint x="236" y="365" as="sourcePoint" />
            <mxPoint x="236" y="45" as="targetPoint" />
          </mxGeometry>
        </mxCell>
        <mxCell id="pX23azcT-TvkSyR6TMsu-16" value="" style="endArrow=none;html=1;rounded=0;strokeColor=#8A8A8A;" edge="1" parent="1">
          <mxGeometry width="50" height="50" relative="1" as="geometry">
            <mxPoint x="250" y="365" as="sourcePoint" />
            <mxPoint x="250" y="45" as="targetPoint" />
          </mxGeometry>
        </mxCell>
        <mxCell id="pX23azcT-TvkSyR6TMsu-17" value="" style="endArrow=none;html=1;rounded=0;strokeColor=#8A8A8A;" edge="1" parent="1">
          <mxGeometry width="50" height="50" relative="1" as="geometry">
            <mxPoint x="265" y="366" as="sourcePoint" />
            <mxPoint x="265" y="46" as="targetPoint" />
          </mxGeometry>
        </mxCell>
        <mxCell id="pX23azcT-TvkSyR6TMsu-18" value="" style="endArrow=none;html=1;rounded=0;strokeColor=#8A8A8A;" edge="1" parent="1">
          <mxGeometry width="50" height="50" relative="1" as="geometry">
            <mxPoint x="277" y="366" as="sourcePoint" />
            <mxPoint x="277" y="46" as="targetPoint" />
          </mxGeometry>
        </mxCell>
        <mxCell id="pX23azcT-TvkSyR6TMsu-20" value="" style="endArrow=none;html=1;rounded=0;strokeColor=#8A8A8A;" edge="1" parent="1">
          <mxGeometry width="50" height="50" relative="1" as="geometry">
            <mxPoint x="290" y="364.5" as="sourcePoint" />
            <mxPoint x="290" y="44.5" as="targetPoint" />
          </mxGeometry>
        </mxCell>
        <mxCell id="pX23azcT-TvkSyR6TMsu-21" value="" style="endArrow=none;html=1;rounded=0;strokeColor=#8A8A8A;" edge="1" parent="1">
          <mxGeometry width="50" height="50" relative="1" as="geometry">
            <mxPoint x="306" y="364.5" as="sourcePoint" />
            <mxPoint x="306" y="44.5" as="targetPoint" />
          </mxGeometry>
        </mxCell>
        <mxCell id="pX23azcT-TvkSyR6TMsu-22" value="" style="endArrow=none;html=1;rounded=0;strokeColor=#8A8A8A;" edge="1" parent="1">
          <mxGeometry width="50" height="50" relative="1" as="geometry">
            <mxPoint x="320" y="364.5" as="sourcePoint" />
            <mxPoint x="320" y="44.5" as="targetPoint" />
          </mxGeometry>
        </mxCell>
        <mxCell id="pX23azcT-TvkSyR6TMsu-23" value="" style="endArrow=none;html=1;rounded=0;strokeColor=#8A8A8A;" edge="1" parent="1">
          <mxGeometry width="50" height="50" relative="1" as="geometry">
            <mxPoint x="335" y="365.5" as="sourcePoint" />
            <mxPoint x="335" y="45.5" as="targetPoint" />
          </mxGeometry>
        </mxCell>
        <mxCell id="pX23azcT-TvkSyR6TMsu-24" value="" style="endArrow=none;html=1;rounded=0;strokeColor=#8A8A8A;" edge="1" parent="1">
          <mxGeometry width="50" height="50" relative="1" as="geometry">
            <mxPoint x="347" y="365.5" as="sourcePoint" />
            <mxPoint x="347" y="45.5" as="targetPoint" />
          </mxGeometry>
        </mxCell>
        <mxCell id="pX23azcT-TvkSyR6TMsu-25" value="" style="endArrow=none;html=1;rounded=0;strokeColor=#8A8A8A;" edge="1" parent="1">
          <mxGeometry width="50" height="50" relative="1" as="geometry">
            <mxPoint x="367" y="364.5" as="sourcePoint" />
            <mxPoint x="367" y="44.5" as="targetPoint" />
          </mxGeometry>
        </mxCell>
        <mxCell id="pX23azcT-TvkSyR6TMsu-26" value="" style="endArrow=none;html=1;rounded=0;strokeColor=#8A8A8A;" edge="1" parent="1">
          <mxGeometry width="50" height="50" relative="1" as="geometry">
            <mxPoint x="383" y="364.5" as="sourcePoint" />
            <mxPoint x="383" y="44.5" as="targetPoint" />
          </mxGeometry>
        </mxCell>
        <mxCell id="pX23azcT-TvkSyR6TMsu-27" value="" style="endArrow=none;html=1;rounded=0;strokeColor=#8A8A8A;" edge="1" parent="1">
          <mxGeometry width="50" height="50" relative="1" as="geometry">
            <mxPoint x="397" y="364.5" as="sourcePoint" />
            <mxPoint x="397" y="44.5" as="targetPoint" />
          </mxGeometry>
        </mxCell>
        <mxCell id="pX23azcT-TvkSyR6TMsu-28" value="" style="endArrow=none;html=1;rounded=0;strokeColor=#8A8A8A;" edge="1" parent="1">
          <mxGeometry width="50" height="50" relative="1" as="geometry">
            <mxPoint x="412" y="365.5" as="sourcePoint" />
            <mxPoint x="412" y="45.5" as="targetPoint" />
          </mxGeometry>
        </mxCell>
        <mxCell id="pX23azcT-TvkSyR6TMsu-29" value="" style="endArrow=none;html=1;rounded=0;strokeColor=#8A8A8A;" edge="1" parent="1">
          <mxGeometry width="50" height="50" relative="1" as="geometry">
            <mxPoint x="424" y="365.5" as="sourcePoint" />
            <mxPoint x="424" y="45.5" as="targetPoint" />
          </mxGeometry>
        </mxCell>
        <mxCell id="pX23azcT-TvkSyR6TMsu-30" value="" style="endArrow=none;html=1;rounded=0;strokeColor=#8A8A8A;" edge="1" parent="1">
          <mxGeometry width="50" height="50" relative="1" as="geometry">
            <mxPoint x="440" y="365" as="sourcePoint" />
            <mxPoint x="440" y="45" as="targetPoint" />
          </mxGeometry>
        </mxCell>
        <mxCell id="pX23azcT-TvkSyR6TMsu-31" value="" style="endArrow=none;html=1;rounded=0;strokeColor=#8A8A8A;" edge="1" parent="1">
          <mxGeometry width="50" height="50" relative="1" as="geometry">
            <mxPoint x="460" y="360" as="sourcePoint" />
            <mxPoint x="460" y="40" as="targetPoint" />
          </mxGeometry>
        </mxCell>
      </root>
    </mxGraphModel>
  </diagram>
</mxfile>
